<mxfile modified="2020-08-13T16:45:43.556Z" host="app.diagrams.net" agent="5.0 (Macintosh; Intel Mac OS X 10_15_6) AppleWebKit/605.1.15 (KHTML, like Gecko) Version/13.1.2 Safari/605.1.15" etag="YRow1ppkyiYqriXMDd5L" version="13.6.2" type="github">
  <diagram id="Ht1M8jgEwFfnCIfOTk4-" name="api-flux">
    <mxGraphModel dx="315" dy="213" grid="1" gridSize="10" guides="1" tooltips="1" connect="1" arrows="1" fold="1" page="1" pageScale="1" pageWidth="827" pageHeight="1169" math="0" shadow="0">
      <root>
        <mxCell id="0" />
        <mxCell id="1" parent="0" />
        <mxCell id="UEzPUAAOIrF-is8g5C7q-1" value="Datalogic architecture" style="points=[[0,0],[0.25,0],[0.5,0],[0.75,0],[1,0],[1,0.25],[1,0.5],[1,0.75],[1,1],[0.75,1],[0.5,1],[0.25,1],[0,1],[0,0.75],[0,0.5],[0,0.25]];outlineConnect=0;gradientColor=none;html=1;whiteSpace=wrap;fontSize=12;fontStyle=0;shape=mxgraph.aws4.group;grIcon=mxgraph.aws4.group_corporate_data_center;strokeColor=#5A6C86;fillColor=none;verticalAlign=top;align=left;spacingLeft=30;fontColor=#5A6C86;dashed=0;" parent="1" vertex="1">
          <mxGeometry x="11.5" y="240" width="188.5" height="180" as="geometry" />
        </mxCell>
        <mxCell id="UEzPUAAOIrF-is8g5C7q-5" value="" style="whiteSpace=wrap;html=1;dashed=0;fontColor=#AAB7B8;fontStyle=0;align=left;verticalAlign=top;strokeColor=#248814;fillColor=none;gradientColor=none;spacingLeft=30;" parent="1" vertex="1">
          <mxGeometry x="88.5" y="273" width="81.5" height="137" as="geometry" />
        </mxCell>
        <mxCell id="-QjtrjUzRDEMRZ5MF8oH-9" value="1" style="rounded=1;whiteSpace=wrap;html=1;fillColor=#007CBD;strokeColor=none;fontColor=#FFFFFF;fontStyle=1;fontSize=14;" parent="1" vertex="1">
          <mxGeometry x="60" y="287.5" width="20" height="20" as="geometry" />
        </mxCell>
        <mxCell id="-QjtrjUzRDEMRZ5MF8oH-47" value="Visual Mix Jade Architecture" style="text;html=1;resizable=0;points=[];autosize=1;align=left;verticalAlign=top;spacingTop=-4;fontSize=30;fontStyle=1" parent="1" vertex="1">
          <mxGeometry x="12" y="65.5" width="420" height="40" as="geometry" />
        </mxCell>
        <mxCell id="-QjtrjUzRDEMRZ5MF8oH-48" value="Simple Visual Mix Jade Architecture" style="text;html=1;resizable=0;points=[];autosize=1;align=left;verticalAlign=top;spacingTop=-4;fontSize=16" parent="1" vertex="1">
          <mxGeometry x="12" y="115.5" width="270" height="20" as="geometry" />
        </mxCell>
        <mxCell id="SCVMTBWpLvtzJIhz15lM-1" value="" style="line;strokeWidth=2;html=1;fontSize=14;" parent="1" vertex="1">
          <mxGeometry x="8" y="140.5" width="1060" height="10" as="geometry" />
        </mxCell>
        <mxCell id="7OVz4w7n9kzEPWy-4BBC-3" value="" style="rounded=0;whiteSpace=wrap;html=1;fillColor=#EAEDED;fontSize=22;fontColor=#FFFFFF;strokeColor=none;labelBackgroundColor=none;" parent="1" vertex="1">
          <mxGeometry x="1106.5" y="52" width="539" height="969" as="geometry" />
        </mxCell>
        <mxCell id="7OVz4w7n9kzEPWy-4BBC-4" value="1" style="rounded=1;whiteSpace=wrap;html=1;fillColor=#007CBD;strokeColor=none;fontColor=#FFFFFF;fontStyle=1;fontSize=22;labelBackgroundColor=none;" parent="1" vertex="1">
          <mxGeometry x="1124.5" y="64" width="40" height="38" as="geometry" />
        </mxCell>
        <mxCell id="7OVz4w7n9kzEPWy-4BBC-5" value="2" style="rounded=1;whiteSpace=wrap;html=1;fillColor=#007CBD;strokeColor=none;fontColor=#FFFFFF;fontStyle=1;fontSize=22;labelBackgroundColor=none;" parent="1" vertex="1">
          <mxGeometry x="1124" y="115.5" width="40" height="38" as="geometry" />
        </mxCell>
        <mxCell id="7OVz4w7n9kzEPWy-4BBC-6" value="3" style="rounded=1;whiteSpace=wrap;html=1;fillColor=#007CBD;strokeColor=none;fontColor=#FFFFFF;fontStyle=1;fontSize=22;labelBackgroundColor=none;" parent="1" vertex="1">
          <mxGeometry x="1124" y="178" width="40" height="38" as="geometry" />
        </mxCell>
        <mxCell id="7OVz4w7n9kzEPWy-4BBC-7" value="4" style="rounded=1;whiteSpace=wrap;html=1;fillColor=#007CBD;strokeColor=none;fontColor=#FFFFFF;fontStyle=1;fontSize=22;labelBackgroundColor=none;" parent="1" vertex="1">
          <mxGeometry x="1125.5" y="277" width="40" height="38" as="geometry" />
        </mxCell>
        <mxCell id="7OVz4w7n9kzEPWy-4BBC-8" value="5" style="rounded=1;whiteSpace=wrap;html=1;fillColor=#007CBD;strokeColor=none;fontColor=#FFFFFF;fontStyle=1;fontSize=22;labelBackgroundColor=none;" parent="1" vertex="1">
          <mxGeometry x="1124" y="338.5" width="40" height="38" as="geometry" />
        </mxCell>
        <mxCell id="7OVz4w7n9kzEPWy-4BBC-9" value="6" style="rounded=1;whiteSpace=wrap;html=1;fillColor=#007CBD;strokeColor=none;fontColor=#FFFFFF;fontStyle=1;fontSize=22;labelBackgroundColor=none;" parent="1" vertex="1">
          <mxGeometry x="1125.5" y="410" width="40" height="38" as="geometry" />
        </mxCell>
        <mxCell id="7OVz4w7n9kzEPWy-4BBC-10" value="7" style="rounded=1;whiteSpace=wrap;html=1;fillColor=#007CBD;strokeColor=none;fontColor=#FFFFFF;fontStyle=1;fontSize=22;labelBackgroundColor=none;" parent="1" vertex="1">
          <mxGeometry x="1125.5" y="470" width="40" height="38" as="geometry" />
        </mxCell>
        <mxCell id="7OVz4w7n9kzEPWy-4BBC-11" value="8" style="rounded=1;whiteSpace=wrap;html=1;fillColor=#007CBD;strokeColor=none;fontColor=#FFFFFF;fontStyle=1;fontSize=22;labelBackgroundColor=none;" parent="1" vertex="1">
          <mxGeometry x="1125.5" y="573" width="40" height="38" as="geometry" />
        </mxCell>
        <mxCell id="7OVz4w7n9kzEPWy-4BBC-13" value="&lt;span&gt;Datalogic&#39;s physical&amp;nbsp;machine. It is responsible&amp;nbsp;for&amp;nbsp;registration products during a sale.&amp;nbsp;&lt;br&gt;&lt;br&gt;&lt;/span&gt;" style="text;html=1;align=left;verticalAlign=top;spacingTop=-4;fontSize=14;labelBackgroundColor=none;whiteSpace=wrap;" parent="1" vertex="1">
          <mxGeometry x="1176" y="63.5" width="449" height="46.5" as="geometry" />
        </mxCell>
        <mxCell id="7OVz4w7n9kzEPWy-4BBC-14" value="Beta&#39;s software middleware. It is responsible for communication between Jade&#39;s machine and 3th party sale API." style="text;html=1;align=left;verticalAlign=top;spacingTop=-4;fontSize=14;labelBackgroundColor=none;whiteSpace=wrap;" parent="1" vertex="1">
          <mxGeometry x="1176" y="116" width="450" height="43.5" as="geometry" />
        </mxCell>
        <mxCell id="7OVz4w7n9kzEPWy-4BBC-15" value="&lt;b&gt;vm-jade-ws -&amp;nbsp;&lt;/b&gt;Visual Mix API. It is responsible for handle request from datalogic&#39;s middleware(Five elementares actions: query, commit, avoid, avoidall, resell).&amp;nbsp;This API is a middleware application: &lt;br&gt;* Query action - API requests data to &lt;b&gt;vm-products-api&lt;br&gt;&lt;/b&gt;* Commit, Avoid, Avoidall, Resell -&amp;nbsp;API requests data to&amp;nbsp;&lt;b&gt;vm-presale-api&lt;/b&gt;" style="text;html=1;align=left;verticalAlign=top;spacingTop=-4;fontSize=14;labelBackgroundColor=none;whiteSpace=wrap;" parent="1" vertex="1">
          <mxGeometry x="1176" y="176.5" width="450" height="117" as="geometry" />
        </mxCell>
        <mxCell id="7OVz4w7n9kzEPWy-4BBC-16" value="&lt;span&gt;&lt;b&gt;vm-product-api&amp;nbsp;&lt;/b&gt;&lt;/span&gt;&lt;b&gt;-&amp;nbsp;&lt;/b&gt;Visual Mix API. It is responsible for searching product data from produtos.db(Sqlite database sent by Visual Store Server)" style="text;html=1;align=left;verticalAlign=top;spacingTop=-4;fontSize=14;labelBackgroundColor=none;whiteSpace=wrap;" parent="1" vertex="1">
          <mxGeometry x="1179.5" y="272.5" width="450" height="49.5" as="geometry" />
        </mxCell>
        <mxCell id="7OVz4w7n9kzEPWy-4BBC-17" value="&lt;b&gt;vm-presale-api&amp;nbsp;&lt;/b&gt;&lt;b&gt;-&amp;nbsp;&lt;/b&gt;Visual Mix API. It is responsible for manager all purchase cycle. &lt;br&gt;Create new cart, add products, queries about carts, etc." style="text;html=1;align=left;verticalAlign=top;spacingTop=-4;fontSize=14;labelBackgroundColor=none;whiteSpace=wrap;" parent="1" vertex="1">
          <mxGeometry x="1176" y="338.5" width="449" height="62.5" as="geometry" />
        </mxCell>
        <mxCell id="7OVz4w7n9kzEPWy-4BBC-18" value="&lt;b&gt;produtos.db&amp;nbsp;&lt;/b&gt;&lt;b&gt;-&amp;nbsp;&lt;/b&gt;Visual Mix&amp;nbsp;SQlite.&amp;nbsp;It contains all products and attributes&amp;nbsp;&lt;br&gt;" style="text;html=1;align=left;verticalAlign=top;spacingTop=-4;fontSize=14;labelBackgroundColor=none;whiteSpace=wrap;" parent="1" vertex="1">
          <mxGeometry x="1176" y="411.5" width="450" height="28.5" as="geometry" />
        </mxCell>
        <mxCell id="7OVz4w7n9kzEPWy-4BBC-20" value="&lt;b&gt;vm-extsale-api&amp;nbsp;&lt;/b&gt;&lt;b&gt;-&amp;nbsp;&lt;/b&gt;Visual Mix API. It is responsible for manager request from POS to perform the &amp;nbsp;purchase. This API uses the easy drive to communicate with vm-presale-api." style="text;html=1;align=left;verticalAlign=top;spacingTop=-4;fontSize=14;labelBackgroundColor=none;whiteSpace=wrap;" parent="1" vertex="1">
          <mxGeometry x="1176" y="574.5" width="449" height="55.5" as="geometry" />
        </mxCell>
        <mxCell id="J2uJuzHB50UTJ_rWJ9Sv-48" style="edgeStyle=orthogonalEdgeStyle;rounded=0;orthogonalLoop=1;jettySize=auto;html=1;entryX=0.005;entryY=0.63;entryDx=0;entryDy=0;entryPerimeter=0;fontSize=10;" parent="1" source="UEzPUAAOIrF-is8g5C7q-6" target="J2uJuzHB50UTJ_rWJ9Sv-2" edge="1">
          <mxGeometry relative="1" as="geometry" />
        </mxCell>
        <mxCell id="UEzPUAAOIrF-is8g5C7q-6" value="&amp;nbsp; &lt;font style=&quot;font-size: 11px&quot;&gt;Jade Machine&lt;/font&gt;" style="outlineConnect=0;fontColor=#232F3E;gradientColor=none;fillColor=#277116;strokeColor=none;dashed=0;verticalLabelPosition=bottom;verticalAlign=top;align=center;html=1;fontSize=12;fontStyle=0;aspect=fixed;pointerEvents=1;shape=mxgraph.aws4.factory;" parent="1" vertex="1">
          <mxGeometry x="24" y="305.5" width="44.5" height="44.5" as="geometry" />
        </mxCell>
        <mxCell id="UEzPUAAOIrF-is8g5C7q-10" value="2" style="rounded=1;whiteSpace=wrap;html=1;fillColor=#007CBD;strokeColor=none;fontColor=#FFFFFF;fontStyle=1;fontSize=14;" parent="1" vertex="1">
          <mxGeometry x="141" y="365" width="20" height="20" as="geometry" />
        </mxCell>
        <mxCell id="J2uJuzHB50UTJ_rWJ9Sv-2" value="&lt;font style=&quot;font-size: 11px&quot;&gt;Middleware &lt;br&gt;Beta&lt;br&gt;&lt;br&gt;&lt;br&gt;&lt;br&gt;&lt;br&gt;&lt;br&gt;&lt;br&gt;&lt;br&gt;&lt;/font&gt;" style="html=1;dashed=0;whitespace=wrap;fillColor=#2875E2;strokeColor=#ffffff;points=[[0.005,0.63,0],[0.1,0.2,0],[0.9,0.2,0],[0.5,0,0],[0.995,0.63,0],[0.72,0.99,0],[0.5,1,0],[0.28,0.99,0]];shape=mxgraph.kubernetes.icon;prIcon=api" parent="1" vertex="1">
          <mxGeometry x="101.75" y="320" width="50" height="48" as="geometry" />
        </mxCell>
        <mxCell id="J2uJuzHB50UTJ_rWJ9Sv-3" value="Visual Mix architecture - Local" style="points=[[0,0],[0.25,0],[0.5,0],[0.75,0],[1,0],[1,0.25],[1,0.5],[1,0.75],[1,1],[0.75,1],[0.5,1],[0.25,1],[0,1],[0,0.75],[0,0.5],[0,0.25]];outlineConnect=0;gradientColor=none;html=1;whiteSpace=wrap;fontSize=12;fontStyle=0;shape=mxgraph.aws4.group;grIcon=mxgraph.aws4.group_security_group;grStroke=0;strokeColor=#248814;fillColor=#E9F3E6;verticalAlign=top;align=left;spacingLeft=30;fontColor=#248814;dashed=0;" parent="1" vertex="1">
          <mxGeometry x="220" y="171.5" width="780" height="358.5" as="geometry" />
        </mxCell>
        <mxCell id="J2uJuzHB50UTJ_rWJ9Sv-4" value="API available to access" style="fillColor=#EFF0F3;strokeColor=none;dashed=0;verticalAlign=top;fontStyle=0;fontColor=#232F3D;" parent="1" vertex="1">
          <mxGeometry x="235.5" y="224" width="134.5" height="246" as="geometry" />
        </mxCell>
        <mxCell id="J2uJuzHB50UTJ_rWJ9Sv-18" style="edgeStyle=orthogonalEdgeStyle;rounded=0;orthogonalLoop=1;jettySize=auto;html=1;exitX=0.9;exitY=0.2;exitDx=0;exitDy=0;exitPerimeter=0;fontSize=14;entryX=0.1;entryY=0.2;entryDx=0;entryDy=0;entryPerimeter=0;" parent="1" source="J2uJuzHB50UTJ_rWJ9Sv-5" target="J2uJuzHB50UTJ_rWJ9Sv-10" edge="1">
          <mxGeometry relative="1" as="geometry">
            <mxPoint x="378" y="350" as="targetPoint" />
          </mxGeometry>
        </mxCell>
        <mxCell id="J2uJuzHB50UTJ_rWJ9Sv-19" style="edgeStyle=orthogonalEdgeStyle;rounded=0;orthogonalLoop=1;jettySize=auto;html=1;exitX=0.72;exitY=0.99;exitDx=0;exitDy=0;exitPerimeter=0;entryX=0.005;entryY=0.63;entryDx=0;entryDy=0;entryPerimeter=0;fontSize=14;" parent="1" source="J2uJuzHB50UTJ_rWJ9Sv-5" target="J2uJuzHB50UTJ_rWJ9Sv-11" edge="1">
          <mxGeometry relative="1" as="geometry" />
        </mxCell>
        <mxCell id="J2uJuzHB50UTJ_rWJ9Sv-63" style="edgeStyle=orthogonalEdgeStyle;rounded=0;orthogonalLoop=1;jettySize=auto;html=1;exitX=0.995;exitY=0.63;exitDx=0;exitDy=0;exitPerimeter=0;entryX=0;entryY=0.75;entryDx=0;entryDy=0;fontSize=10;" parent="1" source="J2uJuzHB50UTJ_rWJ9Sv-5" target="J2uJuzHB50UTJ_rWJ9Sv-54" edge="1">
          <mxGeometry relative="1" as="geometry">
            <Array as="points">
              <mxPoint x="420" y="350" />
              <mxPoint x="420" y="384" />
            </Array>
          </mxGeometry>
        </mxCell>
        <mxCell id="J2uJuzHB50UTJ_rWJ9Sv-5" value="vm-jade-ws&lt;br&gt;&lt;br&gt;&lt;br&gt;&lt;br&gt;&lt;br&gt;&lt;br&gt;" style="html=1;dashed=0;whitespace=wrap;fillColor=#2875E2;strokeColor=#ffffff;points=[[0.005,0.63,0],[0.1,0.2,0],[0.9,0.2,0],[0.5,0,0],[0.995,0.63,0],[0.72,0.99,0],[0.5,1,0],[0.28,0.99,0]];shape=mxgraph.kubernetes.icon;prIcon=api" parent="1" vertex="1">
          <mxGeometry x="274" y="320" width="50" height="48" as="geometry" />
        </mxCell>
        <mxCell id="UEzPUAAOIrF-is8g5C7q-19" value="3" style="rounded=1;whiteSpace=wrap;html=1;fillColor=#007CBD;strokeColor=none;fontColor=#FFFFFF;fontStyle=1;fontSize=14;" parent="1" vertex="1">
          <mxGeometry x="320" y="360" width="20" height="20" as="geometry" />
        </mxCell>
        <mxCell id="J2uJuzHB50UTJ_rWJ9Sv-8" style="edgeStyle=orthogonalEdgeStyle;rounded=0;orthogonalLoop=1;jettySize=auto;html=1;exitX=0.995;exitY=0.63;exitDx=0;exitDy=0;exitPerimeter=0;entryX=0.005;entryY=0.63;entryDx=0;entryDy=0;entryPerimeter=0;" parent="1" source="J2uJuzHB50UTJ_rWJ9Sv-2" target="J2uJuzHB50UTJ_rWJ9Sv-5" edge="1">
          <mxGeometry relative="1" as="geometry" />
        </mxCell>
        <mxCell id="J2uJuzHB50UTJ_rWJ9Sv-30" style="edgeStyle=orthogonalEdgeStyle;rounded=0;orthogonalLoop=1;jettySize=auto;html=1;exitX=0.995;exitY=0.63;exitDx=0;exitDy=0;exitPerimeter=0;entryX=0;entryY=0.5;entryDx=0;entryDy=0;entryPerimeter=0;fontSize=14;" parent="1" source="J2uJuzHB50UTJ_rWJ9Sv-10" target="J2uJuzHB50UTJ_rWJ9Sv-28" edge="1">
          <mxGeometry relative="1" as="geometry">
            <Array as="points">
              <mxPoint x="469" y="302" />
            </Array>
          </mxGeometry>
        </mxCell>
        <mxCell id="J2uJuzHB50UTJ_rWJ9Sv-59" style="edgeStyle=orthogonalEdgeStyle;rounded=0;orthogonalLoop=1;jettySize=auto;html=1;exitX=0.5;exitY=1;exitDx=0;exitDy=0;exitPerimeter=0;entryX=0;entryY=0.25;entryDx=0;entryDy=0;fontSize=10;" parent="1" source="J2uJuzHB50UTJ_rWJ9Sv-10" target="J2uJuzHB50UTJ_rWJ9Sv-54" edge="1">
          <mxGeometry relative="1" as="geometry" />
        </mxCell>
        <mxCell id="J2uJuzHB50UTJ_rWJ9Sv-10" value="vm-products-api&lt;br&gt;&lt;br&gt;&lt;br&gt;&lt;br&gt;&lt;br&gt;&lt;br&gt;&lt;br&gt;" style="html=1;dashed=0;whitespace=wrap;fillColor=#2875E2;strokeColor=#ffffff;points=[[0.005,0.63,0],[0.1,0.2,0],[0.9,0.2,0],[0.5,0,0],[0.995,0.63,0],[0.72,0.99,0],[0.5,1,0],[0.28,0.99,0]];shape=mxgraph.kubernetes.icon;prIcon=api" parent="1" vertex="1">
          <mxGeometry x="419.5" y="273.5" width="50" height="48" as="geometry" />
        </mxCell>
        <mxCell id="J2uJuzHB50UTJ_rWJ9Sv-24" style="edgeStyle=orthogonalEdgeStyle;rounded=0;orthogonalLoop=1;jettySize=auto;html=1;exitX=0.5;exitY=0;exitDx=0;exitDy=0;exitPerimeter=0;fontSize=14;entryX=0;entryY=0.78;entryDx=0;entryDy=0;entryPerimeter=0;" parent="1" source="J2uJuzHB50UTJ_rWJ9Sv-11" target="J2uJuzHB50UTJ_rWJ9Sv-26" edge="1">
          <mxGeometry relative="1" as="geometry">
            <mxPoint x="547" y="450" as="targetPoint" />
            <Array as="points">
              <mxPoint x="480" y="457" />
              <mxPoint x="480" y="457" />
            </Array>
          </mxGeometry>
        </mxCell>
        <mxCell id="J2uJuzHB50UTJ_rWJ9Sv-58" style="edgeStyle=orthogonalEdgeStyle;rounded=0;orthogonalLoop=1;jettySize=auto;html=1;exitX=0.1;exitY=0.2;exitDx=0;exitDy=0;exitPerimeter=0;entryX=0;entryY=1;entryDx=0;entryDy=0;fontSize=10;" parent="1" source="J2uJuzHB50UTJ_rWJ9Sv-11" target="J2uJuzHB50UTJ_rWJ9Sv-54" edge="1">
          <mxGeometry relative="1" as="geometry">
            <mxPoint x="418.5" y="466.6" as="sourcePoint" />
            <mxPoint x="558.0000000000002" y="410.0000000000001" as="targetPoint" />
            <Array as="points">
              <mxPoint x="394" y="467" />
              <mxPoint x="394" y="410" />
            </Array>
          </mxGeometry>
        </mxCell>
        <mxCell id="J2uJuzHB50UTJ_rWJ9Sv-11" value="vm-presale-api&lt;br&gt;&lt;br&gt;&lt;br&gt;&lt;br&gt;&lt;br&gt;&lt;br&gt;&lt;br&gt;" style="html=1;dashed=0;whitespace=wrap;fillColor=#2875E2;strokeColor=#ffffff;points=[[0.005,0.63,0],[0.1,0.2,0],[0.9,0.2,0],[0.5,0,0],[0.995,0.63,0],[0.72,0.99,0],[0.5,1,0],[0.28,0.99,0]];shape=mxgraph.kubernetes.icon;prIcon=api" parent="1" vertex="1">
          <mxGeometry x="419.5" y="457" width="50" height="48" as="geometry" />
        </mxCell>
        <mxCell id="UEzPUAAOIrF-is8g5C7q-20" value="&lt;font style=&quot;font-size: 14px&quot;&gt;4&lt;/font&gt;" style="rounded=1;whiteSpace=wrap;html=1;fillColor=#007CBD;strokeColor=none;fontColor=#FFFFFF;fontStyle=1;fontSize=22;" parent="1" vertex="1">
          <mxGeometry x="464.5" y="265.75" width="20" height="20" as="geometry" />
        </mxCell>
        <mxCell id="J2uJuzHB50UTJ_rWJ9Sv-20" value="&lt;span style=&quot;font-size: 14px&quot;&gt;5&lt;/span&gt;" style="rounded=1;whiteSpace=wrap;html=1;fillColor=#007CBD;strokeColor=none;fontColor=#FFFFFF;fontStyle=1;fontSize=22;" parent="1" vertex="1">
          <mxGeometry x="474.5" y="462.5" width="20" height="20" as="geometry" />
        </mxCell>
        <mxCell id="J2uJuzHB50UTJ_rWJ9Sv-26" value="&lt;font style=&quot;font-size: 10px&quot;&gt;Postgres DB&lt;/font&gt;" style="outlineConnect=0;dashed=0;verticalLabelPosition=bottom;verticalAlign=top;align=center;html=1;shape=mxgraph.aws3.rds;fillColor=#2E73B8;gradientColor=none;fontSize=14;" parent="1" vertex="1">
          <mxGeometry x="560.8399999999999" y="426.5" width="34.66" height="39" as="geometry" />
        </mxCell>
        <mxCell id="J2uJuzHB50UTJ_rWJ9Sv-28" value="&lt;font style=&quot;font-size: 10px&quot;&gt;SQLite - produtos.db&lt;/font&gt;" style="outlineConnect=0;dashed=0;verticalLabelPosition=bottom;verticalAlign=top;align=center;html=1;shape=mxgraph.aws3.rds;fillColor=#2E73B8;gradientColor=none;fontSize=14;" parent="1" vertex="1">
          <mxGeometry x="560.84" y="282.5" width="34.66" height="39" as="geometry" />
        </mxCell>
        <mxCell id="J2uJuzHB50UTJ_rWJ9Sv-31" value="&lt;span style=&quot;font-size: 14px&quot;&gt;6&lt;/span&gt;" style="rounded=1;whiteSpace=wrap;html=1;fillColor=#007CBD;strokeColor=none;fontColor=#FFFFFF;fontStyle=1;fontSize=22;arcSize=0;" parent="1" vertex="1">
          <mxGeometry x="599" y="273.5" width="20" height="20" as="geometry" />
        </mxCell>
        <mxCell id="J2uJuzHB50UTJ_rWJ9Sv-33" value="&lt;span style=&quot;font-size: 14px&quot;&gt;7&lt;/span&gt;" style="rounded=1;whiteSpace=wrap;html=1;fillColor=#007CBD;strokeColor=none;fontColor=#FFFFFF;fontStyle=1;fontSize=22;arcSize=0;" parent="1" vertex="1">
          <mxGeometry x="600" y="420.5" width="20" height="20" as="geometry" />
        </mxCell>
        <mxCell id="J2uJuzHB50UTJ_rWJ9Sv-60" style="edgeStyle=orthogonalEdgeStyle;rounded=0;orthogonalLoop=1;jettySize=auto;html=1;exitX=0.28;exitY=0.99;exitDx=0;exitDy=0;exitPerimeter=0;entryX=0.72;entryY=0.99;entryDx=0;entryDy=0;entryPerimeter=0;fontSize=10;" parent="1" source="J2uJuzHB50UTJ_rWJ9Sv-34" target="J2uJuzHB50UTJ_rWJ9Sv-11" edge="1">
          <mxGeometry relative="1" as="geometry">
            <Array as="points">
              <mxPoint x="460" y="506" />
              <mxPoint x="460" y="505" />
            </Array>
          </mxGeometry>
        </mxCell>
        <mxCell id="J2uJuzHB50UTJ_rWJ9Sv-61" style="edgeStyle=orthogonalEdgeStyle;rounded=0;orthogonalLoop=1;jettySize=auto;html=1;exitX=0.005;exitY=0.63;exitDx=0;exitDy=0;exitPerimeter=0;entryX=1;entryY=0.78;entryDx=0;entryDy=0;entryPerimeter=0;fontSize=10;" parent="1" source="J2uJuzHB50UTJ_rWJ9Sv-34" target="J2uJuzHB50UTJ_rWJ9Sv-26" edge="1">
          <mxGeometry relative="1" as="geometry" />
        </mxCell>
        <mxCell id="J2uJuzHB50UTJ_rWJ9Sv-62" style="edgeStyle=orthogonalEdgeStyle;rounded=0;orthogonalLoop=1;jettySize=auto;html=1;exitX=0.1;exitY=0.2;exitDx=0;exitDy=0;exitPerimeter=0;entryX=1;entryY=0.75;entryDx=0;entryDy=0;fontSize=10;" parent="1" source="J2uJuzHB50UTJ_rWJ9Sv-34" target="J2uJuzHB50UTJ_rWJ9Sv-54" edge="1">
          <mxGeometry relative="1" as="geometry">
            <Array as="points">
              <mxPoint x="650" y="468" />
              <mxPoint x="650" y="401" />
            </Array>
          </mxGeometry>
        </mxCell>
        <mxCell id="J2uJuzHB50UTJ_rWJ9Sv-34" value="vm-extsale-api&lt;br&gt;drive: easy&lt;br&gt;&lt;br&gt;&lt;br&gt;&lt;br&gt;&lt;br&gt;&lt;br&gt;&lt;br&gt;" style="html=1;dashed=0;whitespace=wrap;fillColor=#2875E2;strokeColor=#ffffff;points=[[0.005,0.63,0],[0.1,0.2,0],[0.9,0.2,0],[0.5,0,0],[0.995,0.63,0],[0.72,0.99,0],[0.5,1,0],[0.28,0.99,0]];shape=mxgraph.kubernetes.icon;prIcon=api" parent="1" vertex="1">
          <mxGeometry x="680" y="458" width="50" height="48" as="geometry" />
        </mxCell>
        <mxCell id="J2uJuzHB50UTJ_rWJ9Sv-36" value="&lt;span style=&quot;font-size: 14px&quot;&gt;8&lt;/span&gt;" style="rounded=1;whiteSpace=wrap;html=1;fillColor=#007CBD;strokeColor=none;fontColor=#FFFFFF;fontStyle=1;fontSize=22;arcSize=0;" parent="1" vertex="1">
          <mxGeometry x="730" y="462" width="20" height="20" as="geometry" />
        </mxCell>
        <mxCell id="J2uJuzHB50UTJ_rWJ9Sv-41" value="External access" style="shape=mxgraph.ibm.box;prType=public;fontStyle=0;verticalAlign=top;align=left;spacingLeft=32;spacingTop=4;fillColor=none;rounded=0;whiteSpace=wrap;html=1;strokeColor=#4376BB;strokeWidth=3;dashed=0;container=1;spacing=-4;collapsible=0;expand=0;recursiveResize=0;fontSize=14;" parent="1" vertex="1">
          <mxGeometry x="790" y="210" width="140" height="290" as="geometry" />
        </mxCell>
        <mxCell id="J2uJuzHB50UTJ_rWJ9Sv-40" value="POS" style="points=[[0.015,0.015,0],[0.985,0.015,0],[0.985,0.985,0],[0.015,0.985,0],[0.25,0,0],[0.5,0,0],[0.75,0,0],[1,0.25,0],[1,0.5,0],[1,0.75,0],[0.75,1,0],[0.5,1,0],[0.25,1,0],[0,0.75,0],[0,0.5,0],[0,0.25,0]];verticalLabelPosition=bottom;html=1;verticalAlign=top;aspect=fixed;align=center;pointerEvents=1;shape=mxgraph.cisco19.pos;fillColor=#005073;strokeColor=none;fontSize=10;" parent="J2uJuzHB50UTJ_rWJ9Sv-41" vertex="1">
          <mxGeometry x="21" y="55" width="48.64" height="38" as="geometry" />
        </mxCell>
        <mxCell id="J2uJuzHB50UTJ_rWJ9Sv-42" style="edgeStyle=orthogonalEdgeStyle;rounded=0;orthogonalLoop=1;jettySize=auto;html=1;exitX=0;exitY=0.5;exitDx=0;exitDy=0;exitPerimeter=0;entryX=0.995;entryY=0.63;entryDx=0;entryDy=0;entryPerimeter=0;fontSize=10;" parent="1" source="J2uJuzHB50UTJ_rWJ9Sv-40" target="J2uJuzHB50UTJ_rWJ9Sv-34" edge="1">
          <mxGeometry relative="1" as="geometry" />
        </mxCell>
        <mxCell id="J2uJuzHB50UTJ_rWJ9Sv-54" value="" style="shape=image;html=1;verticalAlign=top;verticalLabelPosition=bottom;labelBackgroundColor=#ffffff;imageAspect=0;aspect=fixed;image=https://cdn1.iconfinder.com/data/icons/anycolor-common-type-files-pack/512/log_anycolor-128.png;fontSize=10;" parent="1" vertex="1">
          <mxGeometry x="560.17" y="357" width="36" height="36" as="geometry" />
        </mxCell>
        <mxCell id="J2uJuzHB50UTJ_rWJ9Sv-67" value="&lt;b&gt;Postgres instance&amp;nbsp;&lt;/b&gt;&lt;b&gt;-&amp;nbsp;&lt;/b&gt;Visual Mix&amp;nbsp;Database.&amp;nbsp;It contains vm_pre_venda and vm_extsale databases.&lt;br&gt;&lt;b&gt;vm_pre_venda&lt;/b&gt;: Database responsible for managements tables at presale process.&lt;br&gt;&lt;b&gt;vm_extsale:&amp;nbsp;&lt;/b&gt;Database responsible for managements configuration data at &lt;b&gt;vm-extsale-api&lt;/b&gt;.&lt;b&gt;&lt;br&gt;&amp;nbsp;&lt;/b&gt;" style="text;html=1;align=left;verticalAlign=top;spacingTop=-4;fontSize=14;labelBackgroundColor=none;whiteSpace=wrap;" parent="1" vertex="1">
          <mxGeometry x="1176" y="467.75" width="450" height="105.25" as="geometry" />
        </mxCell>
        <mxCell id="qsztV1aWT4bm1WWWcHLa-1" value="Visual Mix architecture - Visual Store Server" style="points=[[0,0],[0.25,0],[0.5,0],[0.75,0],[1,0],[1,0.25],[1,0.5],[1,0.75],[1,1],[0.75,1],[0.5,1],[0.25,1],[0,1],[0,0.75],[0,0.5],[0,0.25]];outlineConnect=0;gradientColor=none;html=1;whiteSpace=wrap;fontSize=12;fontStyle=0;shape=mxgraph.aws4.group;grIcon=mxgraph.aws4.group_security_group;grStroke=0;strokeColor=#248814;fillColor=#E9F3E6;verticalAlign=top;align=left;spacingLeft=30;fontColor=#248814;dashed=0;" vertex="1" parent="1">
          <mxGeometry x="432" y="640" width="340" height="158.5" as="geometry" />
        </mxCell>
        <mxCell id="qsztV1aWT4bm1WWWcHLa-2" value="" style="aspect=fixed;html=1;points=[];align=center;image;fontSize=12;image=img/lib/mscae/Local_Network_Gateways.svg;" vertex="1" parent="1">
          <mxGeometry x="570" y="567" width="35" height="35" as="geometry" />
        </mxCell>
        <mxCell id="qsztV1aWT4bm1WWWcHLa-3" value="" style="shape=crossbar;whiteSpace=wrap;html=1;rounded=1;rotation=90;" vertex="1" parent="1">
          <mxGeometry x="576.25" y="540" width="22.5" height="15" as="geometry" />
        </mxCell>
        <mxCell id="qsztV1aWT4bm1WWWcHLa-4" value="" style="shape=crossbar;whiteSpace=wrap;html=1;rounded=1;rotation=90;" vertex="1" parent="1">
          <mxGeometry x="576.25" y="615" width="22.5" height="15" as="geometry" />
        </mxCell>
        <mxCell id="qsztV1aWT4bm1WWWcHLa-8" value="&amp;nbsp; &amp;nbsp; &amp;nbsp;Docker Instance" style="fontStyle=0;verticalAlign=top;align=center;spacingTop=-2;fillColor=none;rounded=0;whiteSpace=wrap;html=1;strokeColor=#00882B;strokeWidth=2;dashed=1;container=1;collapsible=0;expand=0;recursiveResize=0;" vertex="1" parent="1">
          <mxGeometry x="443" y="680" width="176" height="110.75" as="geometry" />
        </mxCell>
        <mxCell id="qsztV1aWT4bm1WWWcHLa-6" value="ELK Stack" style="aspect=fixed;pointerEvents=1;shadow=0;dashed=0;html=1;strokeColor=none;labelPosition=center;verticalLabelPosition=bottom;verticalAlign=top;align=center;fillColor=#00188D;shape=mxgraph.mscae.enterprise.monitor_running_apps" vertex="1" parent="qsztV1aWT4bm1WWWcHLa-8">
          <mxGeometry x="89.15924491771538" y="51.70731707317073" width="42.25556631171345" height="32.9593417231365" as="geometry" />
        </mxCell>
        <mxCell id="qsztV1aWT4bm1WWWcHLa-7" value="" style="aspect=fixed;html=1;points=[];align=center;image;fontSize=12;image=img/lib/mscae/Docker.svg;" vertex="1" parent="qsztV1aWT4bm1WWWcHLa-8">
          <mxGeometry x="2.248925459825756" width="42.25556631171345" height="34.64956437560503" as="geometry" />
        </mxCell>
        <mxCell id="qsztV1aWT4bm1WWWcHLa-18" value="&lt;span style=&quot;font-size: 14px&quot;&gt;9&lt;/span&gt;" style="rounded=1;whiteSpace=wrap;html=1;fillColor=#007CBD;strokeColor=none;fontColor=#FFFFFF;fontStyle=1;fontSize=22;arcSize=0;" vertex="1" parent="qsztV1aWT4bm1WWWcHLa-8">
          <mxGeometry x="137" y="64.67000000000007" width="20" height="20" as="geometry" />
        </mxCell>
        <mxCell id="qsztV1aWT4bm1WWWcHLa-11" value="Visual Mix Systems" style="fontStyle=0;verticalAlign=top;align=center;spacingTop=-2;fillColor=none;rounded=0;whiteSpace=wrap;html=1;strokeColor=#00882B;strokeWidth=2;dashed=1;container=1;collapsible=0;expand=0;recursiveResize=0;" vertex="1" parent="1">
          <mxGeometry x="630" y="680" width="100" height="110" as="geometry" />
        </mxCell>
        <mxCell id="qsztV1aWT4bm1WWWcHLa-14" value="" style="html=1;aspect=fixed;strokeColor=none;shadow=0;align=center;verticalAlign=top;fillColor=#3B8DF1;shape=mxgraph.gcp2.connected" vertex="1" parent="qsztV1aWT4bm1WWWcHLa-11">
          <mxGeometry x="30" y="44.65" width="43.06" height="31" as="geometry" />
        </mxCell>
        <mxCell id="qsztV1aWT4bm1WWWcHLa-16" value="9" style="rounded=1;whiteSpace=wrap;html=1;fillColor=#007CBD;strokeColor=none;fontColor=#FFFFFF;fontStyle=1;fontSize=22;labelBackgroundColor=none;" vertex="1" parent="1">
          <mxGeometry x="1124" y="640" width="40" height="38" as="geometry" />
        </mxCell>
        <mxCell id="qsztV1aWT4bm1WWWcHLa-17" value="&lt;b&gt;ELK Stack&amp;nbsp;&lt;/b&gt;&lt;b&gt;-&amp;nbsp;&lt;/b&gt;Stack composed by Elasticsearch, Logstash and Kibana. It is responsible for manager the logs from&amp;nbsp;&lt;span style=&quot;color: rgb(36 , 136 , 20) ; font-size: 12px&quot;&gt;Visual Mix architecture - Local&lt;/span&gt;" style="text;html=1;align=left;verticalAlign=top;spacingTop=-4;fontSize=14;labelBackgroundColor=none;whiteSpace=wrap;" vertex="1" parent="1">
          <mxGeometry x="1174.5" y="641.5" width="449" height="55.5" as="geometry" />
        </mxCell>
      </root>
    </mxGraphModel>
  </diagram>
</mxfile>
